<svg width="16" height="16" viewBox="0 0 16 16" fill="none" xmlns="http://www.w3.org/2000/svg">
<g clip-path="url(#clip0_5_56)">
<g clip-path="url(#clip1_5_56)">
<path d="M0 1.6C0 0.716345 0.716344 0 1.6 0H14.4C15.2837 0 16 0.716344 16 1.6V14.4C16 15.2837 15.2837 16 14.4 16H1.6C0.716345 16 0 15.2837 0 14.4V1.6Z" fill="#4B0CDF"/>
<path fill-rule="evenodd" clip-rule="evenodd" d="M11.1612 12.5188L3.48119 4.83882C3.10629 4.46392 3.10629 3.85608 3.48119 3.48117C3.85609 3.10627 4.46393 3.10627 4.83883 3.48117L12.5188 11.1612C12.8937 11.5361 12.8937 12.1439 12.5188 12.5188C12.1439 12.8937 11.5361 12.8937 11.1612 12.5188Z" fill="white"/>
<path fill-rule="evenodd" clip-rule="evenodd" d="M12.5188 4.83882L4.83883 12.5188C4.46393 12.8937 3.85609 12.8937 3.48119 12.5188C3.10629 12.1439 3.10629 11.5361 3.48119 11.1612L11.1612 3.48117C11.5361 3.10627 12.1439 3.10627 12.5188 3.48117C12.8937 3.85608 12.8937 4.46392 12.5188 4.83882Z" fill="white"/>
</g>
</g>
<defs>
<clipPath id="clip0_5_56">
<rect width="16" height="16" fill="white"/>
</clipPath>
<clipPath id="clip1_5_56">
<rect width="16" height="16" fill="white"/>
</clipPath>
</defs>
</svg>
