<svg width="16" height="16" viewBox="0 0 16 16" fill="none" xmlns="http://www.w3.org/2000/svg">
<g clip-path="url(#clip0_5_56)">
<g clip-path="url(#clip1_5_56)">
<path d="M0 1.6C0 0.716345 0.716344 0 1.6 0H14.4C15.2837 0 16 0.716344 16 1.6V14.4C16 15.2837 15.2837 16 14.4 16H1.6C0.716345 16 0 15.2837 0 14.4V1.6Z" fill="#4B0CDF"/>
<path fill-rule="evenodd" clip-rule="evenodd" d="M11.9515 13.6485L2.35148 4.04853C1.88286 3.5799 1.88285 2.8201 2.35148 2.35147C2.82011 1.88284 3.57991 1.88284 4.04854 2.35147L13.6485 11.9515C14.1172 12.4201 14.1172 13.1799 13.6485 13.6485C13.1799 14.1172 12.4201 14.1172 11.9515 13.6485Z" fill="white"/>
<path fill-rule="evenodd" clip-rule="evenodd" d="M13.6485 4.04853L4.04851 13.6485C3.57988 14.1172 2.82009 14.1172 2.35146 13.6485C1.88283 13.1799 1.88283 12.4201 2.35146 11.9515L11.9515 2.35148C12.4201 1.88285 13.1799 1.88285 13.6485 2.35148C14.1171 2.82011 14.1171 3.5799 13.6485 4.04853Z" fill="white"/>
</g>
</g>
<defs>
<clipPath id="clip0_5_56">
<rect width="16" height="16" fill="white"/>
</clipPath>
<clipPath id="clip1_5_56">
<rect width="16" height="16" fill="white"/>
</clipPath>
</defs>
</svg>
